<?xml version="1.0" encoding="utf-8"?>
<!-- Generator: Adobe Illustrator 16.0.0, SVG Export Plug-In . SVG Version: 6.00 Build 0)  -->
<!DOCTYPE svg PUBLIC "-//W3C//DTD SVG 1.1//EN" "http://www.w3.org/Graphics/SVG/1.1/DTD/svg11.dtd">
<svg version="1.1" id="Layer_1" xmlns="http://www.w3.org/2000/svg" xmlns:xlink="http://www.w3.org/1999/xlink" x="0px" y="0px"
	 width="204.667px" height="54px" viewBox="0 0 204.667 54" enable-background="new 0 0 204.667 54" xml:space="preserve">
<g>
	<path fill="#00A0DD" d="M71.529,10.719v-0.04c0-3.968,2.971-7.219,7.198-7.219c2.154,0,3.57,0.638,4.787,1.575
		c0.259,0.2,0.478,0.539,0.478,0.978c0,0.678-0.538,1.196-1.216,1.196c-0.339,0-0.578-0.12-0.738-0.239
		c-0.957-0.778-1.994-1.256-3.33-1.256c-2.652,0-4.606,2.194-4.606,4.925v0.04c0,2.732,1.934,4.945,4.606,4.945
		c1.476,0,2.473-0.479,3.49-1.336c0.179-0.16,0.438-0.279,0.738-0.279c0.618,0,1.156,0.519,1.156,1.137
		c0,0.379-0.179,0.678-0.398,0.877c-1.316,1.157-2.812,1.875-5.065,1.875C74.56,17.897,71.529,14.727,71.529,10.719z"/>
	<path fill="#00A0DD" d="M85.809,12.454v-0.04c0-3.011,2.393-5.504,5.624-5.504c3.23,0,5.603,2.453,5.603,5.464v0.04
		c0,2.991-2.393,5.484-5.643,5.484C88.182,17.897,85.809,15.445,85.809,12.454z M94.623,12.454v-0.04c0-1.854-1.336-3.39-3.23-3.39
		c-1.935,0-3.171,1.515-3.171,3.35v0.04c0,1.834,1.336,3.37,3.21,3.37C93.387,15.784,94.623,14.268,94.623,12.454z"/>
	<path fill="#00A0DD" d="M99.491,8.226c0-0.678,0.519-1.216,1.197-1.216c0.678,0,1.216,0.538,1.216,1.216v0.519
		c0.678-0.977,1.655-1.835,3.29-1.835c2.374,0,3.749,1.596,3.749,4.028v5.624c0,0.678-0.519,1.196-1.196,1.196
		s-1.216-0.519-1.216-1.196v-4.886c0-1.635-0.818-2.572-2.254-2.572c-1.396,0-2.373,0.977-2.373,2.612v4.846
		c0,0.678-0.538,1.196-1.216,1.196c-0.659,0-1.197-0.519-1.197-1.196V8.226z"/>
	<path fill="#00A0DD" d="M111.457,16.601c-0.26-0.139-0.459-0.438-0.459-0.837c0-0.538,0.419-0.977,0.978-0.977
		c0.199,0,0.379,0.06,0.519,0.14c1.017,0.678,2.073,1.017,3.031,1.017c1.036,0,1.635-0.439,1.635-1.137v-0.04
		c0-0.817-1.116-1.097-2.354-1.476c-1.556-0.439-3.29-1.077-3.29-3.091v-0.04c0-1.994,1.655-3.21,3.749-3.21
		c1.116,0,2.294,0.319,3.311,0.857c0.339,0.18,0.578,0.499,0.578,0.917c0,0.558-0.439,0.977-0.997,0.977
		c-0.199,0-0.319-0.04-0.479-0.12c-0.856-0.438-1.734-0.718-2.472-0.718c-0.938,0-1.477,0.438-1.477,1.037v0.04
		c0,0.778,1.137,1.097,2.374,1.496c1.535,0.479,3.271,1.176,3.271,3.071v0.04c0,2.213-1.715,3.31-3.909,3.31
		C114.129,17.857,112.673,17.439,111.457,16.601z"/>
	<path fill="#00A0DD" d="M122.147,14.747V9.203h-0.399c-0.578,0-1.037-0.458-1.037-1.037c0-0.578,0.459-1.037,1.037-1.037h0.399
		V5.334c0-0.658,0.538-1.196,1.216-1.196c0.658,0,1.196,0.538,1.196,1.196v1.795h1.895c0.578,0,1.058,0.458,1.058,1.037
		c0,0.579-0.479,1.037-1.058,1.037h-1.895v5.165c0,0.938,0.479,1.316,1.296,1.316c0.279,0,0.519-0.06,0.599-0.06
		c0.539,0,1.017,0.439,1.017,0.997c0,0.439-0.299,0.798-0.638,0.938c-0.518,0.179-1.017,0.279-1.655,0.279
		C123.403,17.837,122.147,17.06,122.147,14.747z"/>
	<path fill="#00A0DD" d="M129.845,8.226c0-0.678,0.519-1.216,1.197-1.216c0.678,0,1.216,0.538,1.216,1.216v1.077
		c0.559-1.316,1.596-2.313,2.652-2.313c0.758,0,1.196,0.499,1.196,1.196c0,0.638-0.419,1.057-0.957,1.157
		c-1.715,0.299-2.892,1.615-2.892,4.108v3.111c0,0.658-0.538,1.196-1.216,1.196c-0.658,0-1.197-0.519-1.197-1.196V8.226z"/>
	<path fill="#00A0DD" d="M147.435,16.562c0,0.658-0.539,1.196-1.217,1.196c-0.658,0-1.217-0.519-1.217-1.196v-0.539
		c-0.678,0.997-1.654,1.854-3.29,1.854c-2.373,0-3.749-1.595-3.749-4.048V8.226c0-0.678,0.539-1.216,1.196-1.216
		c0.679,0,1.217,0.538,1.217,1.216v4.885c0,1.635,0.817,2.553,2.253,2.553c1.396,0,2.373-0.957,2.373-2.592V8.226
		c0-0.678,0.538-1.216,1.217-1.216c0.658,0,1.217,0.538,1.217,1.216V16.562z"/>
	<path fill="#00A0DD" d="M149.869,12.454v-0.04c0-2.991,2.313-5.504,5.483-5.504c1.655,0,2.792,0.539,3.689,1.316
		c0.16,0.14,0.379,0.439,0.379,0.837c0,0.618-0.499,1.097-1.116,1.097c-0.3,0-0.559-0.12-0.718-0.239
		c-0.619-0.519-1.297-0.897-2.254-0.897c-1.755,0-3.052,1.515-3.052,3.35v0.04c0,1.875,1.297,3.37,3.151,3.37
		c0.957,0,1.694-0.379,2.354-0.937c0.139-0.12,0.379-0.259,0.657-0.259c0.579,0,1.037,0.479,1.037,1.057
		c0,0.319-0.119,0.578-0.339,0.758c-0.937,0.897-2.073,1.496-3.829,1.496C152.182,17.897,149.869,15.445,149.869,12.454z"/>
	<path fill="#00A0DD" d="M162.334,14.747V9.203h-0.399c-0.578,0-1.036-0.458-1.036-1.037c0-0.578,0.458-1.037,1.036-1.037h0.399
		V5.334c0-0.658,0.538-1.196,1.216-1.196c0.659,0,1.197,0.538,1.197,1.196v1.795h1.895c0.578,0,1.057,0.458,1.057,1.037
		c0,0.579-0.479,1.037-1.057,1.037h-1.895v5.165c0,0.938,0.479,1.316,1.296,1.316c0.279,0,0.519-0.06,0.599-0.06
		c0.538,0,1.017,0.439,1.017,0.997c0,0.439-0.299,0.798-0.638,0.938c-0.519,0.179-1.018,0.279-1.656,0.279
		C163.59,17.837,162.334,17.06,162.334,14.747z"/>
	<path fill="#00A0DD" d="M169.992,4.297c0-0.718,0.599-1.176,1.376-1.176s1.376,0.458,1.376,1.176v0.12
		c0,0.718-0.599,1.196-1.376,1.196s-1.376-0.479-1.376-1.196V4.297z M170.172,8.226c0-0.678,0.519-1.216,1.196-1.216
		s1.217,0.538,1.217,1.216v8.335c0,0.678-0.539,1.196-1.217,1.196c-0.658,0-1.196-0.519-1.196-1.196V8.226z"/>
	<path fill="#00A0DD" d="M175.157,12.454v-0.04c0-3.011,2.394-5.504,5.624-5.504s5.604,2.453,5.604,5.464v0.04
		c0,2.991-2.393,5.484-5.644,5.484C177.531,17.897,175.157,15.445,175.157,12.454z M183.972,12.454v-0.04
		c0-1.854-1.336-3.39-3.23-3.39c-1.935,0-3.171,1.515-3.171,3.35v0.04c0,1.834,1.336,3.37,3.211,3.37
		C182.735,15.784,183.972,14.268,183.972,12.454z"/>
	<path fill="#00A0DD" d="M188.84,8.226c0-0.678,0.518-1.216,1.196-1.216c0.678,0,1.217,0.538,1.217,1.216v0.519
		c0.678-0.977,1.654-1.835,3.29-1.835c2.373,0,3.749,1.596,3.749,4.028v5.624c0,0.678-0.519,1.196-1.196,1.196
		s-1.217-0.519-1.217-1.196v-4.886c0-1.635-0.817-2.572-2.254-2.572c-1.396,0-2.372,0.977-2.372,2.612v4.846
		c0,0.678-0.539,1.196-1.217,1.196c-0.658,0-1.196-0.519-1.196-1.196V8.226z"/>
</g>
<g>
	<path fill="#65656A" d="M72.147,21.541c0-0.279,0.239-0.519,0.519-0.519s0.519,0.239,0.519,0.519v6.022h8.934v-6.022
		c0-0.279,0.239-0.519,0.519-0.519s0.519,0.239,0.519,0.519v13.081c0,0.279-0.239,0.519-0.519,0.519s-0.519-0.239-0.519-0.519
		v-6.102h-8.934v6.102c0,0.279-0.239,0.519-0.519,0.519s-0.519-0.239-0.519-0.519V21.541z"/>
	<path fill="#65656A" d="M91.373,35.301c-2.672,0-4.985-2.134-4.985-5.305v-0.04c0-2.951,2.074-5.304,4.826-5.304
		c2.852,0,4.666,2.353,4.666,5.264c0,0.239-0.239,0.458-0.479,0.458h-7.976c0.179,2.533,1.994,4.009,3.988,4.009
		c1.456,0,2.472-0.598,3.29-1.396c0.08-0.08,0.18-0.14,0.319-0.14c0.259,0,0.479,0.199,0.479,0.458c0,0.1-0.04,0.22-0.16,0.34
		C94.344,34.642,93.208,35.301,91.373,35.301z M94.823,29.497c-0.14-2.054-1.316-3.948-3.649-3.948c-2.015,0-3.57,1.695-3.749,3.948
		H94.823z"/>
	<path fill="#65656A" d="M98.873,20.923c0-0.279,0.2-0.499,0.479-0.499c0.279,0,0.499,0.219,0.499,0.499v13.719
		c0,0.3-0.199,0.499-0.479,0.499s-0.499-0.199-0.499-0.499V20.923z"/>
	<path fill="#65656A" d="M103.699,25.31c0-0.299,0.199-0.499,0.478-0.499c0.279,0,0.499,0.2,0.499,0.499v1.854
		c0.877-1.336,2.174-2.512,4.187-2.512c2.453,0,4.946,1.974,4.946,5.285v0.039c0,3.311-2.493,5.325-4.946,5.325
		c-2.032,0-3.349-1.157-4.187-2.434v4.966c0,0.299-0.199,0.499-0.479,0.499s-0.498-0.2-0.498-0.499V25.31z M112.752,30.016v-0.04
		c0-2.671-1.855-4.387-3.989-4.387c-2.112,0-4.146,1.775-4.146,4.367v0.04c0,2.611,2.034,4.367,4.146,4.367
		C110.977,34.363,112.752,32.748,112.752,30.016z"/>
	<path fill="#65656A" d="M117.001,20.923c0-0.279,0.199-0.499,0.479-0.499s0.499,0.219,0.499,0.499v13.719
		c0,0.3-0.199,0.499-0.479,0.499c-0.28,0-0.499-0.199-0.499-0.499V20.923z"/>
	<path fill="#65656A" d="M121.847,21.401c0-0.339,0.26-0.598,0.599-0.598s0.618,0.259,0.618,0.598v0.339
		c0,0.339-0.279,0.598-0.618,0.598s-0.599-0.259-0.599-0.598V21.401z M121.967,25.31c0-0.279,0.199-0.499,0.479-0.499
		s0.499,0.2,0.499,0.499v9.332c0,0.3-0.199,0.499-0.479,0.499c-0.278,0-0.498-0.199-0.498-0.499V25.31z"/>
	<path fill="#65656A" d="M126.793,25.31c0-0.279,0.199-0.499,0.479-0.499c0.279,0,0.498,0.2,0.498,0.499v1.475
		c0.678-1.196,1.815-2.133,3.669-2.133c2.572,0,4.067,1.754,4.067,4.187v5.803c0,0.3-0.199,0.499-0.478,0.499
		c-0.279,0-0.499-0.199-0.499-0.499v-5.623c0-2.094-1.176-3.47-3.229-3.47c-1.995,0-3.53,1.516-3.53,3.63v5.463
		c0,0.3-0.199,0.499-0.479,0.499s-0.499-0.199-0.499-0.499V25.31z"/>
	<path fill="#65656A" d="M143.307,35.301c-2.673,0-4.985-2.134-4.985-5.305v-0.04c0-2.951,2.074-5.304,4.825-5.304
		c2.852,0,4.666,2.353,4.666,5.264c0,0.239-0.238,0.458-0.478,0.458h-7.977c0.179,2.533,1.993,4.009,3.987,4.009
		c1.456,0,2.474-0.598,3.291-1.396c0.079-0.08,0.179-0.14,0.319-0.14c0.259,0,0.479,0.199,0.479,0.458c0,0.1-0.041,0.22-0.16,0.34
		C146.277,34.642,145.142,35.301,143.307,35.301z M146.757,29.497c-0.141-2.054-1.316-3.948-3.649-3.948
		c-2.015,0-3.57,1.695-3.749,3.948H146.757z"/>
</g>
<g>
	<path fill="#00A0DD" d="M25.292,49.502c-12.787,0-23.19-10.403-23.19-23.19s10.403-23.19,23.19-23.19
		c8.193,0,15.861,4.395,20.012,11.469c1.028,1.752,0.441,4.007-1.312,5.036c-1.752,1.028-4.007,0.441-5.036-1.312
		c-2.835-4.833-8.071-7.834-13.665-7.834c-8.729,0-15.83,7.102-15.83,15.831c0,8.729,7.102,15.83,15.83,15.83
		c5.55,0,10.766-2.967,13.611-7.743c1.04-1.746,3.299-2.319,5.045-1.278c1.746,1.04,2.318,3.298,1.278,5.044
		c-2.02,3.391-4.89,6.229-8.301,8.211C33.405,48.42,29.383,49.502,25.292,49.502z"/>
	<path fill="#65656A" d="M61.744,43.002l-3.637-3.052V6.801c0-2.033-1.647-3.68-3.68-3.68c-2.032,0-3.68,1.647-3.68,3.68v13.736
		c-2.761,2.508-6.428,4.036-10.451,4.036c-3.837,0-7.352-1.392-10.065-3.697c0,0-0.002,0-0.002-0.002
		c-0.004-0.004-0.01-0.008-0.014-0.012c-0.073-0.062-0.144-0.125-0.217-0.188c-0.012-0.01-0.024-0.02-0.034-0.03
		c-0.054-0.044-0.109-0.085-0.165-0.128c-0.042-0.033-0.083-0.067-0.126-0.099c-0.042-0.031-0.085-0.061-0.128-0.091
		c-0.062-0.044-0.125-0.089-0.188-0.131c-0.04-0.026-0.081-0.051-0.121-0.077c-0.067-0.043-0.136-0.086-0.205-0.127
		c-0.042-0.024-0.083-0.048-0.125-0.072c-0.068-0.039-0.138-0.077-0.208-0.113c-0.022-0.012-0.045-0.026-0.068-0.037h-0.004
		c-1.001-0.512-2.134-0.802-3.335-0.802c-4.055,0-7.343,3.288-7.343,7.343c0,4.055,3.288,7.342,7.343,7.342
		c1.2,0,2.332-0.289,3.333-0.801h0.007c0.034-0.018,0.067-0.037,0.101-0.055c0.045-0.024,0.089-0.049,0.134-0.073
		c0.064-0.036,0.127-0.071,0.19-0.109c0.044-0.026,0.088-0.055,0.132-0.081c0.063-0.04,0.126-0.079,0.188-0.12
		c0.035-0.023,0.069-0.049,0.103-0.072c0.167-0.115,0.33-0.235,0.486-0.364c0.01-0.01,0.022-0.02,0.033-0.029
		c0.074-0.063,0.144-0.127,0.217-0.188c0.004-0.004,0.01-0.008,0.014-0.012c0-0.002,0.002-0.002,0.002-0.002
		c2.713-2.306,6.228-3.697,10.065-3.697c4.023,0,7.69,1.527,10.451,4.035v9.595c0,1.207,0.583,2.273,1.48,2.945l4.785,4.016
		c1.557,1.306,3.878,1.103,5.185-0.454S63.301,44.31,61.744,43.002z"/>
</g>
<g>
	<path fill="#65656A" d="M73.576,44.126h-1.731c-0.17,0-0.315-0.137-0.315-0.307c0-0.171,0.145-0.316,0.315-0.316h4.144
		c0.17,0,0.315,0.146,0.315,0.316c0,0.17-0.145,0.307-0.315,0.307h-1.731v5.047c0,0.188-0.153,0.341-0.341,0.341
		s-0.341-0.153-0.341-0.341V44.126z"/>
	<path fill="#65656A" d="M76.655,45.354c0-0.18,0.145-0.333,0.324-0.333c0.188,0,0.333,0.146,0.333,0.333v0.827
		c0.324-0.733,0.963-1.177,1.518-1.177c0.196,0,0.324,0.145,0.324,0.332c0,0.179-0.119,0.308-0.29,0.333
		c-0.853,0.103-1.552,0.741-1.552,2.012v1.501c0,0.179-0.137,0.332-0.324,0.332s-0.333-0.145-0.333-0.332V45.354z"/>
	<path fill="#65656A" d="M79.564,48.193v-0.018c0-0.93,0.767-1.424,1.884-1.424c0.563,0,0.963,0.076,1.356,0.188v-0.154
		c0-0.792-0.486-1.201-1.313-1.201c-0.443,0-0.818,0.102-1.142,0.247c-0.043,0.018-0.085,0.025-0.12,0.025
		c-0.153,0-0.29-0.128-0.29-0.281c0-0.137,0.094-0.239,0.179-0.272c0.435-0.188,0.878-0.299,1.441-0.299
		c0.623,0,1.1,0.162,1.424,0.486c0.299,0.298,0.452,0.725,0.452,1.287v2.413c0,0.188-0.136,0.323-0.315,0.323
		c-0.188,0-0.315-0.136-0.315-0.307v-0.4c-0.307,0.4-0.819,0.759-1.595,0.759C80.391,49.565,79.564,49.097,79.564,48.193z
		 M82.813,47.852v-0.426c-0.324-0.095-0.759-0.188-1.296-0.188c-0.827,0-1.288,0.358-1.288,0.913v0.017
		c0,0.555,0.512,0.878,1.108,0.878C82.147,49.045,82.813,48.551,82.813,47.852z"/>
	<path fill="#65656A" d="M84.834,43.682c0-0.212,0.17-0.35,0.384-0.35c0.222,0,0.392,0.138,0.392,0.35v0.111
		c0,0.205-0.17,0.35-0.392,0.35c-0.213,0-0.384-0.145-0.384-0.35V43.682z M84.894,45.354c0-0.18,0.146-0.333,0.324-0.333
		c0.188,0,0.333,0.146,0.333,0.333v3.828c0,0.188-0.136,0.332-0.324,0.332s-0.333-0.145-0.333-0.332V45.354z"/>
	<path fill="#65656A" d="M87.078,45.354c0-0.18,0.145-0.333,0.324-0.333c0.188,0,0.333,0.146,0.333,0.333v0.478
		c0.29-0.478,0.75-0.861,1.509-0.861c1.066,0,1.688,0.716,1.688,1.766v2.446c0,0.188-0.145,0.332-0.324,0.332
		c-0.188,0-0.333-0.145-0.333-0.332v-2.285c0-0.818-0.443-1.33-1.219-1.33c-0.759,0-1.321,0.555-1.321,1.382v2.233
		c0,0.188-0.137,0.332-0.324,0.332s-0.333-0.145-0.333-0.332V45.354z"/>
	<path fill="#65656A" d="M92.332,43.682c0-0.212,0.17-0.35,0.384-0.35c0.221,0,0.392,0.138,0.392,0.35v0.111
		c0,0.205-0.17,0.35-0.392,0.35c-0.213,0-0.384-0.145-0.384-0.35V43.682z M92.391,45.354c0-0.18,0.145-0.333,0.324-0.333
		c0.188,0,0.332,0.146,0.332,0.333v3.828c0,0.188-0.136,0.332-0.324,0.332s-0.333-0.145-0.333-0.332V45.354z"/>
	<path fill="#65656A" d="M94.574,45.354c0-0.18,0.145-0.333,0.324-0.333c0.188,0,0.333,0.146,0.333,0.333v0.478
		c0.29-0.478,0.75-0.861,1.509-0.861c1.065,0,1.688,0.716,1.688,1.766v2.446c0,0.188-0.146,0.332-0.324,0.332
		c-0.188,0-0.333-0.145-0.333-0.332v-2.285c0-0.818-0.443-1.33-1.22-1.33c-0.758,0-1.321,0.555-1.321,1.382v2.233
		c0,0.188-0.137,0.332-0.324,0.332s-0.333-0.145-0.333-0.332V45.354z"/>
	<path fill="#65656A" d="M99.939,50.333c-0.103-0.052-0.17-0.153-0.17-0.273c0-0.145,0.145-0.289,0.298-0.289
		c0.06,0,0.103,0.017,0.146,0.042c0.46,0.307,0.989,0.478,1.56,0.478c0.972,0,1.604-0.537,1.604-1.568v-0.521
		c-0.384,0.512-0.921,0.93-1.731,0.93c-1.057,0-2.072-0.793-2.072-2.063V47.05c0-1.287,1.023-2.08,2.072-2.08
		c0.827,0,1.364,0.409,1.723,0.887v-0.503c0-0.18,0.137-0.333,0.323-0.333c0.188,0,0.333,0.153,0.333,0.333v3.351
		c0,0.683-0.205,1.202-0.563,1.561c-0.393,0.392-0.98,0.588-1.68,0.588C101.107,50.853,100.494,50.674,99.939,50.333z
		 M103.393,47.059v-0.017c0-0.904-0.784-1.492-1.62-1.492c-0.835,0-1.526,0.579-1.526,1.483v0.017c0,0.887,0.708,1.501,1.526,1.501
		C102.608,48.551,103.393,47.945,103.393,47.059z"/>
	<path fill="#65656A" d="M108.297,45.644h-0.357c-0.162,0-0.282-0.129-0.282-0.29c0-0.153,0.129-0.281,0.282-0.281h0.357v-0.384
		c0-0.503,0.137-0.887,0.384-1.135c0.222-0.222,0.546-0.341,0.947-0.341c0.213,0,0.374,0.018,0.52,0.052
		c0.128,0.025,0.238,0.136,0.238,0.281c0,0.17-0.145,0.299-0.314,0.281c-0.111-0.017-0.23-0.043-0.358-0.043
		c-0.512,0-0.768,0.308-0.768,0.938v0.358h1.143c0.162,0,0.29,0.119,0.29,0.28c0,0.153-0.128,0.282-0.29,0.282h-1.134v3.538
		c0,0.179-0.137,0.332-0.324,0.332s-0.333-0.153-0.333-0.332V45.644z"/>
	<path fill="#65656A" d="M110.822,47.289v-0.017c0-1.245,0.972-2.303,2.302-2.303c1.321,0,2.294,1.04,2.294,2.285v0.018
		c0,1.244-0.98,2.302-2.311,2.302C111.785,49.574,110.822,48.534,110.822,47.289z M114.744,47.289v-0.017
		c0-0.947-0.707-1.723-1.637-1.723c-0.955,0-1.611,0.775-1.611,1.705v0.018c0,0.946,0.699,1.713,1.628,1.713
		C114.079,48.985,114.744,48.219,114.744,47.289z"/>
	<path fill="#65656A" d="M116.604,45.354c0-0.18,0.145-0.333,0.324-0.333c0.188,0,0.333,0.146,0.333,0.333v0.827
		c0.323-0.733,0.963-1.177,1.518-1.177c0.195,0,0.323,0.145,0.323,0.332c0,0.179-0.119,0.308-0.289,0.333
		c-0.854,0.103-1.552,0.741-1.552,2.012v1.501c0,0.179-0.137,0.332-0.324,0.332c-0.188,0-0.333-0.145-0.333-0.332V45.354z"/>
	<path fill="#65656A" d="M122.285,48.193v-0.018c0-0.93,0.767-1.424,1.884-1.424c0.563,0,0.964,0.076,1.355,0.188v-0.154
		c0-0.792-0.485-1.201-1.313-1.201c-0.443,0-0.818,0.102-1.143,0.247c-0.043,0.018-0.085,0.025-0.119,0.025
		c-0.153,0-0.29-0.128-0.29-0.281c0-0.137,0.094-0.239,0.179-0.272c0.436-0.188,0.879-0.299,1.441-0.299
		c0.622,0,1.1,0.162,1.424,0.486c0.299,0.298,0.452,0.725,0.452,1.287v2.413c0,0.188-0.137,0.323-0.315,0.323
		c-0.188,0-0.316-0.136-0.316-0.307v-0.4c-0.307,0.4-0.818,0.759-1.594,0.759C123.112,49.565,122.285,49.097,122.285,48.193z
		 M125.533,47.852v-0.426c-0.324-0.095-0.759-0.188-1.296-0.188c-0.827,0-1.287,0.358-1.287,0.913v0.017
		c0,0.555,0.512,0.878,1.108,0.878C124.868,49.045,125.533,48.551,125.533,47.852z"/>
	<path fill="#65656A" d="M129.876,49.003c-0.06-0.043-0.119-0.128-0.119-0.238c0-0.154,0.127-0.282,0.29-0.282
		c0.06,0,0.119,0.018,0.161,0.052c0.452,0.307,0.921,0.469,1.398,0.469c0.529,0,0.912-0.272,0.912-0.699v-0.018
		c0-0.442-0.52-0.613-1.1-0.776c-0.69-0.195-1.458-0.434-1.458-1.244v-0.018c0-0.758,0.631-1.262,1.501-1.262
		c0.469,0,0.98,0.145,1.407,0.375c0.085,0.052,0.161,0.146,0.161,0.273c0,0.153-0.128,0.281-0.29,0.281
		c-0.06,0-0.11-0.018-0.145-0.034c-0.375-0.213-0.776-0.341-1.151-0.341c-0.52,0-0.853,0.273-0.853,0.64v0.018
		c0,0.417,0.546,0.579,1.134,0.758c0.683,0.205,1.416,0.47,1.416,1.263v0.017c0,0.836-0.691,1.321-1.569,1.321
		C130.992,49.557,130.354,49.344,129.876,49.003z"/>
	<path fill="#65656A" d="M134.029,48.193v-0.018c0-0.93,0.768-1.424,1.884-1.424c0.563,0,0.964,0.076,1.356,0.188v-0.154
		c0-0.792-0.486-1.201-1.313-1.201c-0.443,0-0.818,0.102-1.143,0.247c-0.043,0.018-0.085,0.025-0.119,0.025
		c-0.153,0-0.29-0.128-0.29-0.281c0-0.137,0.094-0.239,0.179-0.272c0.436-0.188,0.879-0.299,1.441-0.299
		c0.622,0,1.1,0.162,1.424,0.486c0.299,0.298,0.452,0.725,0.452,1.287v2.413c0,0.188-0.137,0.323-0.315,0.323
		c-0.188,0-0.315-0.136-0.315-0.307v-0.4c-0.308,0.4-0.819,0.759-1.595,0.759C134.856,49.565,134.029,49.097,134.029,48.193z
		 M137.277,47.852v-0.426c-0.324-0.095-0.759-0.188-1.296-0.188c-0.827,0-1.287,0.358-1.287,0.913v0.017
		c0,0.555,0.512,0.878,1.108,0.878C136.612,49.045,137.277,48.551,137.277,47.852z"/>
	<path fill="#65656A" d="M139.547,45.644h-0.358c-0.161,0-0.281-0.129-0.281-0.29c0-0.153,0.128-0.281,0.281-0.281h0.358v-0.384
		c0-0.503,0.137-0.887,0.384-1.135c0.222-0.222,0.546-0.341,0.946-0.341c0.213,0,0.375,0.018,0.521,0.052
		c0.128,0.025,0.238,0.136,0.238,0.281c0,0.17-0.145,0.299-0.315,0.281c-0.11-0.017-0.23-0.043-0.357-0.043
		c-0.512,0-0.768,0.308-0.768,0.938v0.358h1.143c0.162,0,0.289,0.119,0.289,0.28c0,0.153-0.127,0.282-0.289,0.282h-1.135v3.538
		c0,0.179-0.136,0.332-0.323,0.332s-0.333-0.153-0.333-0.332V45.644z"/>
	<path fill="#65656A" d="M144.271,49.574c-1.211,0-2.199-0.93-2.199-2.294v-0.017c0-1.271,0.895-2.294,2.114-2.294
		c1.305,0,2.046,1.066,2.046,2.233c0,0.18-0.145,0.307-0.307,0.307h-3.188c0.094,0.956,0.767,1.493,1.552,1.493
		c0.546,0,0.946-0.214,1.271-0.512c0.051-0.043,0.11-0.077,0.188-0.077c0.162,0,0.289,0.128,0.289,0.281
		c0,0.077-0.033,0.154-0.103,0.214C145.517,49.31,145.022,49.574,144.271,49.574z M145.576,47.024
		c-0.068-0.802-0.528-1.501-1.407-1.501c-0.768,0-1.347,0.64-1.432,1.501H145.576z"/>
	<path fill="#65656A" d="M147.394,45.354c0-0.18,0.146-0.333,0.324-0.333c0.188,0,0.333,0.146,0.333,0.333v0.827
		c0.323-0.733,0.963-1.177,1.518-1.177c0.196,0,0.323,0.145,0.323,0.332c0,0.179-0.119,0.308-0.289,0.333
		c-0.853,0.103-1.552,0.741-1.552,2.012v1.501c0,0.179-0.137,0.332-0.324,0.332s-0.333-0.145-0.333-0.332V45.354z"/>
	<path fill="#65656A" d="M154.48,49.241l-1.338-3.727c-0.018-0.05-0.043-0.119-0.043-0.179c0-0.162,0.137-0.315,0.333-0.315
		c0.17,0,0.281,0.11,0.332,0.273l1.108,3.308l1.117-3.316c0.051-0.154,0.153-0.265,0.324-0.265h0.034
		c0.179,0,0.289,0.11,0.341,0.265l1.108,3.316l1.125-3.324c0.043-0.138,0.137-0.257,0.316-0.257c0.188,0,0.323,0.146,0.323,0.307
		c0,0.061-0.025,0.129-0.042,0.18l-1.348,3.734c-0.068,0.196-0.204,0.299-0.358,0.299h-0.025c-0.17,0-0.298-0.103-0.357-0.299
		l-1.101-3.214l-1.108,3.214c-0.06,0.196-0.188,0.299-0.358,0.299h-0.017C154.686,49.54,154.549,49.438,154.48,49.241z"/>
	<path fill="#65656A" d="M160.265,47.289v-0.017c0-1.245,0.972-2.303,2.302-2.303c1.321,0,2.294,1.04,2.294,2.285v0.018
		c0,1.244-0.98,2.302-2.311,2.302C161.228,49.574,160.265,48.534,160.265,47.289z M164.187,47.289v-0.017
		c0-0.947-0.708-1.723-1.637-1.723c-0.955,0-1.611,0.775-1.611,1.705v0.018c0,0.946,0.698,1.713,1.628,1.713
		C163.521,48.985,164.187,48.219,164.187,47.289z"/>
	<path fill="#65656A" d="M166.047,45.354c0-0.18,0.145-0.333,0.323-0.333c0.188,0,0.333,0.146,0.333,0.333v0.827
		c0.324-0.733,0.964-1.177,1.518-1.177c0.196,0,0.324,0.145,0.324,0.332c0,0.179-0.119,0.308-0.29,0.333
		c-0.853,0.103-1.552,0.741-1.552,2.012v1.501c0,0.179-0.137,0.332-0.324,0.332s-0.332-0.145-0.332-0.332V45.354z"/>
	<path fill="#65656A" d="M169.501,43.537c0-0.179,0.145-0.332,0.324-0.332c0.188,0,0.332,0.153,0.332,0.332v4.042l2.388-2.431
		c0.077-0.085,0.153-0.128,0.256-0.128c0.179,0,0.298,0.146,0.298,0.307c0,0.104-0.042,0.171-0.127,0.257l-1.441,1.415l1.577,1.986
		c0.06,0.077,0.085,0.137,0.085,0.222c0,0.18-0.136,0.307-0.314,0.307c-0.12,0-0.196-0.042-0.282-0.153l-1.525-1.927l-0.913,0.904
		v0.844c0,0.188-0.137,0.332-0.324,0.332s-0.332-0.145-0.332-0.332V43.537z"/>
	<path fill="#65656A" d="M174.346,45.354c0-0.188,0.145-0.333,0.323-0.333c0.188,0,0.333,0.146,0.333,0.333v0.597
		c0.358-0.528,0.878-0.98,1.688-0.98c1.058,0,2.105,0.836,2.105,2.285v0.018c0,1.44-1.04,2.293-2.105,2.293
		c-0.818,0-1.348-0.443-1.688-0.938v1.919c0,0.188-0.137,0.333-0.324,0.333s-0.332-0.146-0.332-0.333V45.354z M178.123,47.28v-0.017
		c0-1.041-0.717-1.706-1.553-1.706c-0.818,0-1.594,0.69-1.594,1.697v0.018c0,1.022,0.775,1.704,1.594,1.704
		C177.424,48.977,178.123,48.347,178.123,47.28z"/>
	<path fill="#65656A" d="M180.068,43.537c0-0.179,0.146-0.332,0.324-0.332c0.188,0,0.332,0.153,0.332,0.332v5.645
		c0,0.188-0.136,0.332-0.323,0.332s-0.333-0.145-0.333-0.332V43.537z"/>
	<path fill="#65656A" d="M181.919,48.193v-0.018c0-0.93,0.768-1.424,1.885-1.424c0.563,0,0.963,0.076,1.355,0.188v-0.154
		c0-0.792-0.486-1.201-1.313-1.201c-0.443,0-0.818,0.102-1.143,0.247c-0.043,0.018-0.085,0.025-0.119,0.025
		c-0.153,0-0.29-0.128-0.29-0.281c0-0.137,0.094-0.239,0.179-0.272c0.436-0.188,0.879-0.299,1.441-0.299
		c0.622,0,1.1,0.162,1.424,0.486c0.299,0.298,0.452,0.725,0.452,1.287v2.413c0,0.188-0.137,0.323-0.315,0.323
		c-0.188,0-0.315-0.136-0.315-0.307v-0.4c-0.308,0.4-0.818,0.759-1.595,0.759C182.746,49.565,181.919,49.097,181.919,48.193z
		 M185.167,47.852v-0.426c-0.324-0.095-0.759-0.188-1.296-0.188c-0.827,0-1.287,0.358-1.287,0.913v0.017
		c0,0.555,0.512,0.878,1.108,0.878C184.502,49.045,185.167,48.551,185.167,47.852z"/>
	<path fill="#65656A" d="M186.917,47.289v-0.017c0-1.245,0.972-2.303,2.26-2.303c0.733,0,1.228,0.281,1.619,0.64
		c0.052,0.043,0.103,0.128,0.103,0.23c0,0.179-0.145,0.315-0.315,0.315c-0.085,0-0.162-0.034-0.213-0.077
		c-0.315-0.29-0.674-0.528-1.202-0.528c-0.896,0-1.577,0.759-1.577,1.705v0.018c0,0.954,0.699,1.713,1.62,1.713
		c0.503,0,0.903-0.229,1.228-0.537c0.043-0.043,0.103-0.085,0.188-0.085c0.162,0,0.299,0.145,0.299,0.298
		c0,0.077-0.034,0.153-0.086,0.205c-0.418,0.418-0.921,0.708-1.662,0.708C187.889,49.574,186.917,48.525,186.917,47.289z"/>
	<path fill="#65656A" d="M193.859,49.574c-1.211,0-2.2-0.93-2.2-2.294v-0.017c0-1.271,0.896-2.294,2.115-2.294
		c1.304,0,2.046,1.066,2.046,2.233c0,0.18-0.146,0.307-0.307,0.307h-3.189c0.094,0.956,0.768,1.493,1.552,1.493
		c0.546,0,0.946-0.214,1.271-0.512c0.051-0.043,0.11-0.077,0.188-0.077c0.162,0,0.29,0.128,0.29,0.281
		c0,0.077-0.034,0.154-0.103,0.214C195.104,49.31,194.609,49.574,193.859,49.574z M195.163,47.024
		c-0.067-0.802-0.528-1.501-1.406-1.501c-0.768,0-1.347,0.64-1.433,1.501H195.163z"/>
</g>
</svg>
